<svg xmlns="http://www.w3.org/2000/svg" viewBox="0 0 424 491.1"><defs><style>.cls-1{fill:#2196f3}.cls-4{fill:#e6e6e6}</style></defs><path class="cls-1" d="M212 .1V0L0 122.1v246l212 123 212-123v-246L212 .1z"/><path fill="#1e88e5" d="M212 491.1L0 368.1v-246l212 123v246z"/><path class="cls-1" d="M212 491.1l212-123v-246l-212 123v246z"/><path fill="#42a5f5" d="M212 .1V0L0 122.1l212 123 212-123L212 .1z"/><path class="cls-4" d="M926 471.61v80.24l-9.44 5.47v-37.76l-14.16 8.21v37.76l-9.48 5.47v-80.23l9.44-5.48v33l14.16-8.21v-33zM706.45 495.83v45l-10-5.73v5l-15-8.61v30l-10-5.74v-85l25 14.35v5zm-10-.73l-15-8.61v35l15 8.61z" transform="translate(-587 -224.9)"/></svg>