<svg xmlns="http://www.w3.org/2000/svg" viewBox="0 0 151.2 79.2"><defs><style>.cls-2{fill:#fff}</style></defs><path fill="#e40033" d="M0 0h151.2v79.2H0z"/><path class="cls-2" d="M68.28 38.8v1.7a4 4 0 00-2.57-1 3.28 3.28 0 00-2.47 1 3.56 3.56 0 00-1 2.56 3.45 3.45 0 001 2.52 3.31 3.31 0 002.47 1 2.94 2.94 0 001.29-.21 3.34 3.34 0 00.61-.33 8.28 8.28 0 00.67-.5v1.73a5.2 5.2 0 01-2.58.73 4.76 4.76 0 01-3.48-1.42 4.7 4.7 0 01-1.43-3.46A4.85 4.85 0 0162 39.85a4.74 4.74 0 013.82-1.75 4.9 4.9 0 012.46.7zM75.83 39.64H72v2.28h3.69v1.35H72v3.17h3.8v1.35h-5.21v-9.5h5.24zM78.16 47.79V37.64l6.93 7.25v-6.6h1.43v10.08l-6.92-7.23v6.65zM91.82 39.64v8.15h-1.44v-8.15H88.2v-1.35H94v1.35zM98.89 43.74l2.94 4h-1.75l-2.71-3.84h-.26v3.89h-1.44v-9.5h1.68a4.12 4.12 0 012.72.71 2.57 2.57 0 01.93 2.08 2.72 2.72 0 01-.58 1.73 2.65 2.65 0 01-1.53.93zm-1.78-1.09h.45q2 0 2-1.56c0-1-.66-1.45-2-1.45h-.51zM108.83 39.64H105v2.28h3.7v1.35H105v3.17h3.81v1.35h-5.24v-9.5h5.24zM120.1 39.64h-3.31v2.28H120v1.35h-3.19v4.52h-1.43v-9.5h4.74zM121.68 43a4.66 4.66 0 011.47-3.45 4.83 4.83 0 013.52-1.44 5 5 0 014.94 4.94 4.66 4.66 0 01-1.47 3.48 5 5 0 01-6.85.16 4.65 4.65 0 01-1.61-3.69zm1.44 0a3.44 3.44 0 001.06 2.59 3.38 3.38 0 002.43 1 3.43 3.43 0 002.52-1 3.7 3.7 0 000-5.1 3.36 3.36 0 00-2.5-1 3.5 3.5 0 00-3.51 3.51zM137 43.74l2.94 4h-1.75l-2.71-3.89h-.26v3.89h-1.44v-9.5h1.68a4.14 4.14 0 012.72.71 2.57 2.57 0 01.93 2.08 2.72 2.72 0 01-.58 1.73 2.65 2.65 0 01-1.53.98zm-1.78-1.09h.45q2 0 2-1.56c0-1-.66-1.45-2-1.45h-.51zM16.64 56.47h-3.78v2.61h3.64v1.54h-3.64v5.17h-1.64V54.93h5.42zM22.52 61.16l3.36 4.63h-2l-3.1-4.45h-.3v4.45h-1.64V54.93h1.92a4.79 4.79 0 013.11.81 3 3 0 011.05 2.38 3.07 3.07 0 01-.66 2 2.93 2.93 0 01-1.74 1.04zm-2-1.24H21c1.55 0 2.33-.6 2.33-1.78s-.76-1.67-2.27-1.67h-.58zM33.87 56.47h-4.35v2.61h4.22v1.54h-4.22v3.63h4.35v1.54h-6V54.93h6zM42.51 56.47h-4.35v2.61h4.22v1.54h-4.22v3.63h4.35v1.54h-6V54.93h6zM56 56.47h-4.39v2.61h4.22v1.54h-4.22v3.63H56v1.54h-6V54.93h6zM61.06 60.11l-3-5.18h1.86L62 58.61l2.18-3.68h1.88l-3.13 5.18 3.29 5.68h-1.84L62 61.63l-2.5 4.16h-1.85zM69.76 61.38v4.41h-1.64V54.93H70a8.18 8.18 0 012.06.19 2.84 2.84 0 011.24.72 3.1 3.1 0 01.93 2.3 3 3 0 01-1 2.37 4 4 0 01-2.7.87zm0-1.52h.61c1.51 0 2.26-.58 2.26-1.74s-.77-1.68-2.33-1.68h-.54zM79.91 61.16l3.36 4.63h-2l-3.1-4.45h-.3v4.45h-1.63V54.93h1.92a4.76 4.76 0 013.1.81 3 3 0 011.06 2.38 3.07 3.07 0 01-.66 2 2.93 2.93 0 01-1.75 1.04zm-2-1.24h.52c1.56 0 2.33-.6 2.33-1.78s-.75-1.67-2.26-1.67h-.59zM91.26 56.47h-4.35v2.61h4.22v1.54h-4.22v3.63h4.35v1.54h-6V54.93h6zM99.8 56.55l-1.33.79a2.38 2.38 0 00-.71-.85 1.92 1.92 0 00-2 .16 1.22 1.22 0 00-.45 1c0 .53.39 1 1.18 1.28l1.08.44a4.54 4.54 0 011.93 1.31 2.92 2.92 0 01.62 1.89 3.34 3.34 0 01-1 2.47 3.41 3.41 0 01-2.5 1 3.31 3.31 0 01-2.33-.83 3.82 3.82 0 01-1.13-2.36l1.66-.36a2.75 2.75 0 00.39 1.32 1.88 1.88 0 002.75.19 2 2 0 00.42-1.88 1.42 1.42 0 00-.28-.49 2.23 2.23 0 00-.48-.41 5 5 0 00-.7-.37l-1-.44c-1.49-.63-2.23-1.54-2.23-2.75a2.6 2.6 0 01.94-2.05 3.38 3.38 0 012.32-.83 3.26 3.26 0 012.85 1.77zM108.66 56.55l-1.33.79a2.38 2.38 0 00-.71-.85 1.92 1.92 0 00-2 .16 1.22 1.22 0 00-.45 1c0 .53.39 1 1.18 1.28l1.08.44a4.65 4.65 0 011.94 1.31 3 3 0 01.61 1.89 3.34 3.34 0 01-1 2.47 3.41 3.41 0 01-2.5 1 3.31 3.31 0 01-2.33-.83 3.82 3.82 0 01-1.15-2.42l1.66-.36a2.75 2.75 0 00.39 1.32 1.88 1.88 0 002.75.19 1.91 1.91 0 00.42-1.88 1.42 1.42 0 00-.28-.49 2.23 2.23 0 00-.48-.41 5 5 0 00-.7-.37l-1-.44c-1.49-.63-2.23-1.54-2.23-2.75a2.6 2.6 0 01.94-2.05 3.38 3.38 0 012.32-.83 3.26 3.26 0 012.87 1.83zM113 54.93v10.86h-1.63V54.93zM115.55 60.31a5.33 5.33 0 011.68-3.94 5.57 5.57 0 014-1.64 5.62 5.62 0 014 9.62 5.76 5.76 0 01-7.84.18 5.32 5.32 0 01-1.84-4.22zm1.65 0a3.94 3.94 0 001.21 3 4 4 0 005.66 0 4.2 4.2 0 000-5.82 4.06 4.06 0 00-5.72 0 3.91 3.91 0 00-1.15 2.84zM129.42 65.79v-11.6l7.91 8.29v-7.55H139v11.52l-7.91-8.26v7.6z"/></svg>