<svg xmlns="http://www.w3.org/2000/svg" viewBox="0 0 1016.1 828"><path d="M751 397a152 152 0 0025 15c5 5 13 17 21 13l2 6 4 2v3h8c-1 11 2 16 12 20 7-3 14 1 19 7 4 0 10-3 13-6l6 6 4-2 2-4 12 2-2 4-5 3v9l-3 1-4 9-4 1v6l4 1c5-4 5-15 9-20v-4l9-4 7 6 5-3c12-1 15 2 18 13l11 10-5 17c-3-3-6-13-11-9l-20 12c-10 7-36 21-47 27l-4-4c10-6-4-13-8-9-2 2-7 5-5 9 6 7 3 12 6 16l-4 2c-6-3-9-5-15-2l-4-5c1-9-4-9-11-7-1-5-2-9-8-9l-8-4-2-6c2-1 3-6 3-9 3 0 5-3 4-6 5-1 13 6 14-4 3 1 7 2 9-1 9 0 10-4 5-11 0-4 2-13-5-13-2-4-8-9-12-12 0-3-1-7-4-8-1-5-2-18-8-21-5 0-6-1-10-4-1-10 1-13-10-16-2-4-7-7-10-9l-3-8zm260 152l-4-3-1 9-3-2-2-11-3 4 2 9-4 1c-1-3-2-9-4-11l3-8-6-1-2 3-6-5 1-4-2-5-8 1-5 3-2 6-7-1-2 4-8-3 1-5-7-1-1 12-4-6c-1-7-1-30-4-37-5 2-9 10-11 14l7 47 3 4-3 3c0 3 2 10 5 12l-3 12 3 7h2c7-7 18-15 28-16 2-2 7-7 7-10l5 4 4-3 4 3-4 9 4 1 4-3v-14h3l-1-11 3-2c4 4 8 12 7 17l4-5 4 3 8-2a107 107 0 01-5-19zm-97 88l-3 4 1 8-4 3-6-3-6 3-6-2 3-5 9-1 12-7zm31-6c-1 4-4 11-7 14l-3-1-4 5-8-7c2-8 0-18 2-26l3-1c2 3 5 10 5 13l3 3 3-3h4zm-40 28l-4-2-4 1c0 4-2 11-7 9l-3 8 9-4c-6 12-23 29-11 43l4-1 4 4 3-1c1-3 3-8 6-10 1-5 2-13 1-18l10-3-2-3c10-7 19-20 24-30l-8-4c-6 4-16 6-22 11zm-17 6l-1 6c-8 9-15 25-30 24-2-3-7-8-11-10l-10-25-8-3-1 1c3-3 1-7-1-10l5-2c2 1 4 2 6 0 1-2 13-10 13-12h5l3 3 4-6 5-2 2 11 4 3 1 5c3 1 8 6 10 9l6-1c-1 2-4 7-2 9zm-29-62l8 12-10 14-8-1-1 2c-4-4-12 7-15 8-3-2-9 2-12 4-5 4-3 7-1 12 0 2-4 5-5 7-3 8-3 23-4 30l2 6-2 7 1 4-8 6-1 6-35 14c-1-4 0-8 2-10l3-1c-1-4 0-11 1-15 6-4 8-13 13-18 18-6 17-33 24-47 11-16 26-42 48-40zm29-21c-11 0-23-1-34 2l1 5 6-1c8 6 21 3 29-1zm21-74c-20 12-49 31-71 40 6 7-7 11-12 12l-9-3c-11 5-10 1-16-7-2 1-11 1-13-1-2-4 2-7 0-12-3 1-12-6-15-7s-2-3-1-6c-3-4-5-7 0-11 1-2 1-7 3-8-3-3-2-8 1-8s13-2 15 0c0-7 7-5 11-4a5 5 0 014-2l-1-8c-2 0-6-7-8-9-3-3-9-6-9-11-2-1-4-2-4-5-1-3-2-13-4-16-4 0-9-4-13-7-2-1-1-10-2-12-5-1-7-3-11-8-4-3-8-5-9-10l-1 3 4 5c1 4 2 13 0 17l-3-1 1 8-5 7-5-2-6 1-4-4-3-1-8 4-3-5 2-3-6-2c-2-5-6-17-11-20l-2-7-3 2-3-4c-3 3-12 2-16 2-1-4-12-10-15-12-4 1-10-2-13-4-5 14-24 8-35 10l-4 6c0 6 6 13 10 17l2 8-3 5 5 3c1 3 6 8 8 10l2 6-3 3 3 5c-4 5-4 13-2 18 39 13 46 58 11 81l3 7 5 2c5 10 8 25 18 32l1 8-6 12c3 1 6 17 7 19l8 29 11 41c3 2 10 10 13 11l15-1 8 4c4 0 7 0 10 4a14 14 0 018 0l12-9c6 0 14-3 13 7a6 6 0 011 1l2-2-2-2 3-6 3-2 1-8c8-7 10-19 21-23 1-5 6-11 5-17 5-4 5-12 4-17 3-4 3-13 3-17l4-4v-3l4-4-1-3 9-5c-8-31 36-37 56-49h4c3-5 13-9 17-14 1-3 2-13 5-15l-2-5a63 63 0 012-9l5-2 4-7zM658 753l-11-2v-4l7-3 6 3zm75 10c14-4 18-20 27-30a5 5 0 01-3-5h-3l-7 6c-1 5-7 3-11 2-5 2-7 3-11-3-5 1-9-1-12-4-2 0-16 2-17 0-5-1-13-10-16-13l-4-10-20-73-8-2c-3-6-9-13-16-12-2-5-11-12-15-14 1-6-4-13-3-19l-6-7c0-3 1-14-2-17-9-2-21-1-30 2l-36-11c-2-5-9-9-14-11-20 28-40 64-64 89l4 63a28 28 0 018 0v3l-4 5 6 2-6 8 1 2c5 1 18 4 22 0 6 4 17 6 23 10l7-5 2 3 8-1 4 2 8-4v-6l7-5 2-5 6-4c5 3 16 3 22 1 2 5 8 13 13 15l11-2-1 7 7 6-2 5 7 7v3c17 6 37-2 55 1l3 5h3c2 3 7 11 11 11l-3 4 2 2-1 5c-3 1-16-6-19-7l-1-5-4 2 4 4 3 7-4 12 4 14-6 9-3 1v11l2 3-7 1-1 7h9c-1-3 14-17 16-19h9c5-8 16-10 23-13l-3-7-4 3h-6c-1-15 19-17 27-26l7 4 2-3-2-1-1-3-6 3a20 20 0 016-3zm-271-63v9l-79 2c-2-70-7-153-3-223 22 0 51 0 72-2 0 6 2 11 1 16l6 5 11-1c4 8 7 20 12 26v8h6c10-9 19-3 30-1l-46 68c0 2-19 21-18 23l2 31c2 3-1 40 6 39zm-87 11c-35-1-74-4-109-8 9-72 20-149 31-221 22 3 53 5 75 6-4 70 1 153 3 223zm-163-16l-6-12c2-9 2-14-1-24 0-2-5-6-6-7 1-4-5-10-7-13-1-4-2-13-7-14-1-3-2-8-6-8-1-2-2-8-6-8v-7c-2-4-4-13-10-11l-1-2a10 10 0 00-2-9l35-118a830 830 0 0094 19c-11 72-22 149-31 221l-46-7zM7 543l6 1-1 15c-3-3-5-12-5-16zm74 117l-10-11v-5c-2-3-4-12-4-16-9-4-19-11-24-19l-8-2c0 8 6 18 9 25l6 2-2 9 6 1c0 14 14 25 24 33l5-3c-2-3-2-10-2-14zM15 524l-4-5c-5 6-5 15-3 22l6 2c2-3 7-12 10-13l-5-5zm23 18l3 13 4-4-5-12zm10 29c1-3 4-8 3-11l-4-4-4 6v4zm151 115c-2-1 1-13 1-15l-2-9c-3-3-8-7-7-11-6-7-7-10-9-18-3-2-5-5-6-8-3 0-4-4-5-7-9 2-3-12-8-19-4 1-7-4-9-6s0-5 0-7c-1-2-3-5-2-7l6-20c8-31 19-68 29-99-59-17-120-42-173-73 2 7 4 19 1 22l9-1 2 1 8-7 8 1 2 6-2 6 3 5-1 6c8 11 1 31 4 44l-2 3c2 8 10 17 14 23-3 4-5 13-6 17l-13 15 2 7-2 4 4 14 6-6-1 10 2 3-1 8 3 3-4 6 3 5 9-1v2l-12 5c0 4-1 11-4 14 1 4 4 9 7 11l3-2c3 3 5 9 5 13 5 1 14 5 17 10l-4 4 4 7 3 1 1 7 4 3 5-3c-1 3-3 9-1 12 35 12 76 21 113 28zM11 372l-4 1-7-7c36-53 77-110 116-161 12 5 8 19 15 28-3 5-16 23-16 30-10 10 1 11 8 16l2 4-3 8c-6 7-6 10 4 12l-1 5c-3 2-12 5-8 10-5 3-2 7 1 11 0 2 1 9 3 10-3 11 3 9 3 17-5 2-5 5-4 10-2 2 0 9 0 12-3 8-5 10 4 15v6c1 2 3 8 6 9-3 13-7 17 10 18 2 1 5 5 8 3l1 10a715 715 0 01-134-61l2-3zm261-127l9-7-5-1v-6l-4-1c1-4 5-10 10-9l-1-6c7-7 19-8 28-12l3 6-3 9 8-5c5 2 10 8 14 12l-8 46-15-2 5-3-1-3-12-6c-7 2-16-3-24-3zm79-135l2-8h-1l-4 3 1 4zm0 16l3-11h-12l-5 4v5l3 4c3 1 9 0 11-2zm-70 137l26 5c-7-3-17-6-26-5zm55-145l-2-6-4 3 2 4zm-95 112l3 4c4-2 14-4 18-4l3-8c4-2 12-6 12-10 6-4 24-8 29-13l-8-16c-8 0-17-5-20-12l-19-2v12c-11 6-15 21-25 27l7 13zm-103 7l-14 22c0 2-1 8-3 9 7 4 9 5 12 12 2 3-3 13-5 16 8 1 5 9 5 14 1 3-5 5-7 7 2 2 0 5-2 7l3 9c5 1 2 8 2 12l3 7c0 4 1 10-4 11a7 7 0 01-1 7c1 6 2 10-1 15 10 6 3 8 8 17 7 2 3 10 2 15 4 0 8 1 11 4 8-4 10 1 9 9 0 2 0 11 2 12a779 779 0 00215 38l2-79-57-14c-2 0-13-16-14-17-3-1-18-2-19-4-7-8-31-41-41-45-1-3-14-17-12-20l6-16c0-2 5-21 7-21l-1-2-11-4-4 6-4 1-6-2 4-4-1-3 4-6h-4l-12 9c-4-8 0-19-4-28l-3 4 1 4-6 3-15-1-5 3-2-3-13 4 7-6c6 3 14 0 19-3l-6-4-11 4-6-2-4 4-4-2-1-4c-8-3-13-4-18 3a4 4 0 01-1 2zm155-92l2 3 10-7 5 3 3-5 7-2 2-5-2-3 5-4-3-5-5 4-7-3-11 8c-1 1-14 5-15 8l3 5zm31-3c-12 1-14 15-22 21l9 8 26 1-4 3-6-1c-2 2-8 3-10 4 3 11 14 7 22 3-1-2 2-14 2-16l-4-1c1-5-2-12-5-15l-6-1 1-5zm-16 4c-4 1-10 5-12 8l3 3 5-4zm119 40c-3-1-9-5-11-8l4-9 4-3 4 1 5 6 1 12zm-45-33l-7 2 5 4zm46-29l-10-1-3 3 2 4h10zm-40 38l-6 5 5 2 12-3-4 7v6c3 2 11 1 14 0-1-8 3-21 0-29-6-8-17 0-22 4zm58-32l-3-5-3-1v7l3 2zm-35-13l3 5 4-2 2-8c-2 0-13-9-15-8l-1 6 2 4zm9-25l7-1-6 9c3 5 10 13 16 15l3-3 6 1c2-7 6-20 12-24-6-5-15-13-16-20l-12-2-7-13-4-2 2 6-7 2-1 4 4 4-4 3-3 8 7 15zm7-41c7 17 30 18 40 3l3 4c-4 6-16 12-24 12l3 10 6 2 5 8v3h8l-1 3-8-1-6 4c-1 3-2 10-1 13 5-1 10 4 12 8l-10-3-3 2 7 12c-3 1-8 6-10 8l1 6 11 3a19 19 0 0112-1l2-4 12-2 4-3 3 1 2 4 8-8 1-8-3-4-3 3-4-5c2-2 4-6 4-9l-4-6 5-1 4-4c0-6-2-18-6-24v-4l7-10c-1-10-1-28 2-38l-3-2c-1-4 1-13 1-17l-3-3c-3 1-11-2-14-3-6 4-15 2-20 6l-1 4-7-1-3 5-6 2 1 2-5 5 1 5-8 1v7l-7 1-9 10 7-1zm-45 100l-6-5-2 1 1 6zm136 48l3 6 6 1 4-4 12-3c-10-18-17-9-32-9l2 8zm195 205l-2 1 1 7 4-4zM360 204l-5 4 3 2 6 11c2-2 7-9 7-13l-4-4zm111-42h-7l-4 2-14-10-2-8-4-2-7 2-5-6-10-2-5 2v4c5 9 10 10 19 8l8 14-2 8 7 10c20 2 44-2 63-11l-1-5 4-2c-6-21-28-15-40-4zm263 212l-3-5-6 4 7 3zM446 223c5-6 6-18 9-25-5-2-14-1-20-3l-10 4c-3 7 1 17 0 24l4 16 6-1 4-9-4-6h11zm-45 75l1 5c2 1 14 4 15 6l9 2c11-11-6-23-14-29-3 3-5 11-5 15zm-23-122l-3-6-4 6 5 2zm33 43l1-6 3-1 1-6-2-4-12 3-5-4-5 3 2 4-6 3 9 10-2 4h-6l-4-7-3 1-2 7a14 14 0 016 8l7 2c2 3 10 14 10 17l5 1c1-4 9-9 12-11l-1-10 2-2zm-161 53l-10 30 10 13 11 8 29 37c23 3 17 2 31 19l59 15c7-2-1 84 1 86 21 0 50 0 71-2 1-8 3-18 7-24l-2-2 5-5-1-5 9-9-2-3 7-2-4-3 2-3h7l6-6-1-6-10-4 1-2 7 3 5-3 4-9h8l6-5c0-5 4-15 6-19l-2-4-17 1c-2-2-6-7-9-8l2-4c4 2 12 6 14 10h8c4-5 6-14 8-20l-6-1v-5h5l3-2 4 6c9-3 22-8 22-19l4-3-1-9c-9-7-18-12-7-23l-5-6 1-5c-3 0-9-1-11-3l-1-4c-4 1-10 1-14-1l-6 2-1 4 4 9 3 1v6l-3 3c1 5 2 17-2 21l1 5-7 3c-7-4-14-13-7-20-1-7-9-13-15-15l-2 6c2 3 0 11-1 15-2-3-4-9-4-13l-6-7 4-4h-10l-5-3 4-12-10-11-2-10-11-9c-10 2-13 13-13 22l3 4-2 5 4 10 14 7c1 1-1 12-1 14l7-3c-1 5-3 15-8 18l-4-1-2 7 3 4-5 6-4-5 3-12-7-3-4-5-4 2-6 10 3 3-7 2-8-3-11 3c-3-1-12-3-14-7l-9-1v-4l-4-1a16 16 0 01-2-10l-6-4c-4 3-12 5-17 5l-1 6c3 0 10 1 13-1v6l-8 1-3 6 3 15-3 1c0-4-3-9-5-12l-4 1v-6l-5-2-1-5-9 4c-11-1-28 2-31-12l11-4c0-4-8-12-10-15-7 3-17-3-21-10a33 33 0 01-9-6zm342 136l-3 2-1 5 3 7 5 2v-14zm12-120l-2-4-7-1-2 5 4 2zm-4 95l-4 3 7 4 3-2-3-5zm-7-82v-6c-1-2-4-8-4-11l-7-1-6 4-1 12 6 8 9-3zm34 237l7-1 1-10-4-5 1 8-3 2zm53-168c9 10 25 0 36 3l2-3c-8-13-29-12-41-19l1-4c6 0 16 2 21 5 5-2 15 1 20 3 0-5-5-12-3-17-2-5-12-12-17-14l-1-5-5 3-1-5-4-2-9 2c-2-1-5-4-6-7h-7l-4-5 4-2v-4l-4-8c5-1 13 4 18 3 3 10 16 14 25 12 0-5-5-12-7-15h5c0-4 1-13-1-16l2-4-2-5-7-4c-2 3-6 6-10 6l-3-2-6-1c-2-3-6-7-10-7-6 3-17 0-23-1v-2l-12 2-3-2 3-8-4-1 9-6-6-2-5 2h-5l1-5 7-3c-3-5-10-8-15-7l-3-4c-8-2-19-1-24 7l-3-6 4-1 1-4-5-4h-8l1 4-3 3c-1-2-6-4-9-4l-3-7-5 1-4-7h-16l-4 7 1 3-12 3-5-15-5-1c0-3-2-7-5-9l-7 2c-19 16-11 20-7 40l-3 3-4-8v-4l-4-8c0-6 3-16 6-20l-2-1c-25-1-26 36-18 54 4 0 14 0 18 3l-5 3-5-2-4 4 6 8h15c2 2 5 5 8 5l2-2h13l3-2 8 2 6-7h9l2 2 6-3 1-7 4-1c3 8 14 12 22 14l-1 5-4 1 4 6 5-8 18 9 5-1 3 5c5 2 10 9 11 15l-2 2c2 5-4 18-6 22l9 4 1 5-4 6h-3l-2 4c-5 2-14 2-19 1v7l-3 5 3 8 4 3 13-2 6-8 6 1 2-4 4-1 1 3c7-4 14 2 19 6l8-1 4 11c5 2 17 1 22 0zM402 79l-3-1-2 4 6 3zm225 517l-7 3-1 3 17 3-2-6zm-71-327l-4 11h3l2-9zM376 133c-1-2-3-9-6-9l1 9zm-26 34h-1l-2 10 3-1 1 3c3 1 9 1 12-1l6-13v-5l-5-3-2 3-8-5 2-3v-9l-3-2c-2 2-6 7-6 11l3 3-4 3v1l4 3zm33-62l-1 5-5-2 1 6 6-1 9 4 2 6h6l1-4-4-5v-8l-6-2-1-5h-4c-1-6-6-7-11-6l-1 6 6 1zm181 274c-1-3-4-8-7-10-4 1-10-2-13-4l-1-2h-7c-4-5-12-7-15-12l-3 4c1 11 0 24 5 34-3 1-7 6-8 9l4 3 3-3 8-2 2 10 4 1c4-4 9-13 12-18l-1-5h9c3 4 12 7 17 7l3-4-1-5zM338 228c-2 11-5 41-9 51-11 1-40-6-51-8 0 2-1 5-3 5 3 8 14 7 20 11-7 20 16 14 28 16 5-1 12-5 18-5l5-4c9 0 20 9 29 10 3-1 8-4 9-7l-6-12 4-2 3 3 6 1-1-10-3 1-11-12-3 2c-3-2-6-8-7-11a12 12 0 000-15c-1-5-3-15-2-20l-9-10-2 2-4-4c-5 4 0 19-2 23l2 8-6 2c1-5-2-17-3-22l-4-4-1 6a4 4 0 013 5zm163 77l-2 5 3 6 3-4zm63 98c-3 3-12 10-13 14l3 3 7 1 7-13v-5zm-19-136v-4l-8 4 4 3z" fill="#d62443"/></svg>