<svg xmlns="http://www.w3.org/2000/svg" viewBox="0 0 500 332"><defs><style>.cls-1{fill:#27588c}</style></defs><path class="cls-1" d="M1103.47 374.08v269.44a5.93 5.93 0 01-2.82 5.07l-90.75 54.67-3.95 2.26V374.08z" transform="translate(-710 -374)"/><path d="M1210 374.08v188.75c-1.13.56-2.25-.57-2.82-1.13l-62-37.2c-10.15-6.2-19.73-11.84-29.88-18a6.2 6.2 0 01-3.38-5.63V374.08z" transform="translate(-710 -374)" fill="#179bd6"/><path class="cls-1" d="M1111.92 515.16l.57.32 10.71 6.2 84 50.73a4.47 4.47 0 012.82 4.51V706a50 50 0 01-5.64-3.38l-89.62-54.11a4.48 4.48 0 01-2.82-4.51" transform="translate(-710 -374)"/><path d="M710 374h141.63a207.51 207.51 0 0137.24 3.39 78 78 0 0153.61 37.24c6.2 10.72 10.15 22.57 10.72 34.42a95.49 95.49 0 01-10.16 53c-6.21 11.85-15.24 22-26 30.47a5.7 5.7 0 00-2.82 2.25c.57 1.13 1.7 1.13 2.26 1.7a36.25 36.25 0 0117.49 18c4 9 8.47 17.5 12.42 26.52 2.25 5.65 7.33 9 13.54 9.6h11.85c1.69 0 2.25 0 2.25 2.25v55.3c0 1.69-.56 2.26-2.25 2.26H913.7a44.33 44.33 0 01-12.42-1.69 33.93 33.93 0 01-21.44-16.93c-5.08-10.16-10.15-20.88-15.8-31L847.12 567c-2.26-6.21-8.47-10.16-15.24-10.16a27.58 27.58 0 00-9.59 0v31.6c0 2.26 0 2.26 2.25 2.26h19.75c2.83 0 2.83 0 2.83 2.25v54.74c0 2.82 0 2.25-2.83 2.25H710v-59.26h25.39c4.52 0 4 .56 4-3.95V435.5c0-1.69-.56-2.25-2.26-2.25H710zm112.29 93.1v22.57c0 2.26-1.13 5.08.56 6.21s3.95.56 5.64.56c6.78 0 13.55 0 20.32-.56a25.25 25.25 0 0020.88-16.36 35.47 35.47 0 001.12-20.32 20.64 20.64 0 00-14.67-17.49 53.16 53.16 0 00-9-2.26c-7.9-.56-15.24-1.12-23.14-.56-2.82 0-2.26 0-2.26 2.82z" transform="translate(-710 -374)" fill="#c60101"/></svg>