<svg viewBox="0 0 347.44 288.57" xmlns="http://www.w3.org/2000/svg" xmlns:xlink="http://www.w3.org/1999/xlink">
    <style>
        #text-light { visibility: hidden; }
        #text-light:target { visibility: visible; }
        #text-light:target ~ #text-dark { visibility: hidden; }
    </style>
    <defs><symbol id="text"><path d="M15.77 284.79L.54 242.4a6.71 6.71 0 0 1-.49-2 3.68 3.68 0 0 1 3.78-3.59 3.93 3.93 0 0 1 3.79 3.1l12.61 37.64 12.7-37.73c.59-1.75 1.75-3 3.69-3h.39a4 4 0 0 1 3.88 3l12.61 37.73 12.8-37.83a3.67 3.67 0 0 1 3.59-2.91 3.59 3.59 0 0 1 3.69 3.49 6.77 6.77 0 0 1-.49 2l-15.32 42.49c-.78 2.23-2.33 3.4-4.08 3.4h-.29c-1.94 0-3.39-1.17-4.07-3.4l-12.56-36.57-12.62 36.57c-.67 2.23-2.13 3.4-4.07 3.4h-.19c-1.85 0-3.4-1.17-4.12-3.4zM104.19 288.58c-13.78 0-25-10.58-25-26.1v-.19c0-14.45 10.19-26.09 24.06-26.09 14.84 0 23.28 12.12 23.28 25.41a3.47 3.47 0 0 1-3.49 3.49H86.77c1.06 10.87 8.73 17 17.65 17a20.5 20.5 0 0 0 14.41-5.81 3.29 3.29 0 0 1 2.14-.88 3.26 3.26 0 0 1 3.3 3.2 3.21 3.21 0 0 1-1.17 2.43 25.49 25.49 0 0 1-18.91 7.54zm14.84-29c-.78-9.11-6-17.07-16-17.07-8.73 0-15.32 7.28-16.29 17.07zM135.53 253.66v-.2c0-19.3 15.23-35.11 36.18-35.11s36 15.61 36 34.92v.19c0 19.31-15.23 35.12-36.19 35.12s-35.99-15.62-35.99-34.92zm56.55 0v-.2c0-11.64-8.54-21.34-20.57-21.34s-20.37 9.51-20.37 21.15v.19c0 11.64 8.54 21.34 20.57 21.34s20.37-9.51 20.37-21.14zM227.12 281.79l-12.7-36.67a12.46 12.46 0 0 1-.68-3.59 6.79 6.79 0 0 1 7.08-6.69c3.68 0 6.11 2.33 7.18 5.72l7.95 26.39 8.15-26.29c1.07-3.49 3.78-5.92 7.56-5.92h.88a7.78 7.78 0 0 1 7.56 5.92l8.25 26.38 8.15-26.58c1-3.1 3.2-5.62 7.08-5.62a6.7 6.7 0 0 1 6.88 6.79 13.27 13.27 0 0 1-.48 3l-13.1 37.15c-1.55 4.56-4.55 6.59-8.14 6.59h-.49c-3.59 0-6.59-2-8-6.3L252 255.88l-8.34 26.19c-1.36 4.27-4.36 6.3-7.95 6.3h-.49c-3.54.01-6.54-2.02-8.1-6.58zM297.83 242.21a7.37 7.37 0 1 1 14.74 0v.58c3.39-4.36 7.76-8.34 15.23-8.34 11.15 0 17.65 7.37 17.65 19.3v26.87a7.37 7.37 0 0 1-14.74 0v-22.21c0-7-3.3-10.57-8.92-10.57s-9.22 3.59-9.22 10.57v22.21a7.37 7.37 0 0 1-14.74 0z"></path></symbol></defs>
    <path className="logo-inner logo-a" fill="#f7af2e" d="M111.37 118.99h89.66v64.19h-89.66zM258.69 184.03l24.69-35.57 24.6 35.54-8.6.03h-40.69zM213.47 131.29v-18.51a6.17 6.17 0 0 0-1.11-3.55l-30-43.25 55.26.09v65.22z"/>
    <path className="logo-inner logo-b" fill="#ee3f34" d="M144.98 53.47l-28.06-40.31h86.93l28.08 40.46-86.95-.15zM108.4 106.55L80.31 66.08h86.97l28.09 40.47H108.4z"/>
    <path className="logo-inner logo-c" fill="#3a99d4" d="M74.79 184.03v-45.96H62.35v45.96H38.21v-69.6l30.22-43.65 30.5 43.94v69.31H74.79zM80.43 53.37l24.59-35.52 24.79 35.6-49.38-.08zM213.47 184.03v-40.27h58.02l-27.94 40.27h-30.08z"/>
    <path className="logo-outline" fill="#130f2b" d="M149.26 138.17h13.88V164h-13.88zM176.95 44.2h14.01l-15.09-21.77h-14.15l15.23 21.77z"/>
    <path className="logo-outline" fill="#130f2b" d="M323.51 183.29l-34.42-49.72a7 7 0 0 0-5-2.95h-33.32V59.86a6.89 6.89 0 0 0-1.23-4L212.77 2.99a7 7 0 0 0-5.7-3H105.01a7 7 0 0 0-5.71 3L62.87 55.62a4.76 4.76 0 0 0-.34.57l-36.24 52.35a6.9 6.9 0 0 0-1.24 3.95v70.8H.53v14.08h269.5v-.09l29.32-.11h48.11v-13.88zm-24.13 0h-39.31l23.31-33.59 23.23 33.59zm-85.19 0v-38.8h55.93l-26.95 38.8zM38.93 114.66l29.5-42.62 29.78 42.91v68.34h-22.7v-46H61.63v46h-22.7zM203.48 13.88l27.07 39-85.19-.14-27.07-38.88zm-3.17 105.84v62.74h-88.22v-62.74zM166.9 66.8l27.09 39h-85.22l-27.09-39zm70 63.81h-22.7v-17.83a7 7 0 0 0-1.23-4l-29.2-42.08 53.16.09zM128.43 52.73l-46.66-.08 23.22-33.54z"/>
    <use xlink:href="#text" id="text-light" fill="#ffffff"></use>
    <use xlink:href="#text" id="text-dark" fill="#130f2b"></use>
</svg>